Coordinates
version=1
nRows=24
nColumns=24
inDegrees=yes

Units are S.I. units (second, meters, Newtons, ...)
Angles are in degrees.

endheader
time	pelvis_tilt	pelvis_list	pelvis_rotation	pelvis_tx	pelvis_ty	pelvis_tz	hip_flexion_r	hip_adduction_r	hip_rotation_r	knee_angle_r	ankle_angle_r	subtalar_angle_r	mtp_angle_r	hip_flexion_l	hip_adduction_l	hip_rotation_l	knee_angle_l	ankle_angle_l	subtalar_angle_l	mtp_angle_l	lumbar_extension	lumbar_bending	lumbar_rotation
      4.56000000	     -7.69437222	     -0.83309495	     -6.15226754	     -1.21516539	     -0.03820222	     -0.31870416	     -5.23487831	      1.68454135	      5.61419251	    -22.54556966	      9.08623684	      7.90009450	     14.20878491	     35.69380972	     -4.30127351	      2.79463215	    -13.24616780	      1.57317903	     11.89265177	    -11.89979441	      6.50236317	      0.95936061	      5.36764605
      4.56500000	     -7.66648492	     -0.67242266	     -6.33706002	     -1.20802085	     -0.03926850	     -0.31927799	     -5.30259376	      1.31706846	      5.39294959	    -23.24386166	      8.55443647	      8.37847293	     15.62694096	     35.74608143	     -4.17592047	      2.36643278	    -14.10517088	      1.14003290	     11.96652641	    -11.05157056	      6.51912188	      0.70726123	      5.41513256
      4.57000000	     -7.69382251	     -0.48169229	     -6.64150202	     -1.20093782	     -0.04030619	     -0.31968146	     -5.25797150	      0.94024446	      5.43037988	    -24.05400641	      8.15366634	      8.89070050	     16.37730910	     35.82486178	     -4.09723930	      1.91901271	    -14.96481763	      0.61421790	     11.83597110	    -10.49524823	      6.59014694	      0.44027958	      5.62904120
      4.57500000	     -7.72947100	     -0.29995334	     -6.94503229	     -1.19384824	     -0.04134967	     -0.32009951	     -5.16756648	      0.56871927	      5.42467800	    -24.92804153	      7.73314672	      9.44172704	     17.01563011	     35.92870070	     -4.03010085	      1.47175045	    -15.87767136	      0.11345642	     11.68008864	    -10.04627157	      6.66901898	      0.17942690	      5.79901571
      4.58000000	     -7.78206683	     -0.13904257	     -7.04494326	     -1.18671751	     -0.04234465	     -0.32073905	     -5.09475832	      0.21003063	      5.08787941	    -25.66188870	      6.88035280	      9.77320044	     18.66588298	     36.07718023	     -3.87229968	      1.15298982	    -16.71258325	     -0.96098029	     11.37988399	     -8.55355987	      6.76256520	     -0.09406710	      5.81709102
      4.58500000	     -7.87829679	      0.11322690	     -7.27116968	     -1.17959130	     -0.04327428	     -0.32118290	     -4.89254340	     -0.22821137	      4.96026961	    -26.59258394	      6.33934828	     10.33326770	     19.04129870	     36.27979321	     -3.72132548	      0.62263898	    -17.66072136	     -1.57848374	     11.21652047	     -8.39358813	      6.92037153	     -0.45130544	      5.99094175
      4.59000000	     -8.01280111	      0.31369284	     -7.31243486	     -1.17246964	     -0.04419437	     -0.32196217	     -4.66319633	     -0.64458570	      4.48565202	    -27.40840407	      5.34148615	     10.78210848	     20.69817428	     36.54473712	     -3.48905663	      0.38742722	    -18.53613839	     -2.63969372	     10.73320655	     -7.31586943	      7.10558071	     -0.75938557	      5.91944618
      4.59500000	     -8.15999022	      0.60946265	     -7.45102962	     -1.16536905	     -0.04502822	     -0.32251797	     -4.33801071	     -1.13983431	      4.19578127	    -28.41171934	      4.59406584	     11.37299193	     21.19520370	     36.84022407	     -3.25551398	     -0.08778769	    -19.51622026	     -3.27109408	     10.50140489	     -7.19970779	      7.31474565	     -1.17329609	      5.97539851
      4.60000000	     -8.33180571	      0.84631334	     -7.41583087	     -1.15828610	     -0.04576355	     -0.32333571	     -4.01332677	     -1.59517555	      3.62353620	    -29.27447743	      3.32313039	     11.74816569	     22.88964878	     37.15692639	     -2.93235112	     -0.14227747	    -20.42161552	     -4.17135556	      9.91404257	     -6.72767450	      7.53223075	     -1.53699116	      5.92204817
      4.60500000	     -8.50474496	      1.14084895	     -7.41186638	     -1.15125360	     -0.04646207	     -0.32407166	     -3.61446291	     -2.10651168	      3.11094803	    -30.27214913	      2.12268267	     12.14227688	     24.14297939	     37.48749066	     -2.57948738	     -0.28283496	    -21.38230504	     -4.81623122	      9.41978173	     -6.63545899	      7.74998089	     -1.97243363	      5.84180538
      4.61000000	     -8.71291114	      1.44548619	     -7.41528892	     -1.14425432	     -0.04711819	     -0.32481870	     -3.11680292	     -2.64193452	      2.57161555	    -31.37878974	      0.93931556	     12.70239628	     24.95398125	     37.84646346	     -2.20843068	     -0.34403443	    -22.35170893	     -5.31028888	      8.90210451	     -6.79019074	      8.00250253	     -2.40237024	      5.84309272
      4.61500000	     -8.93077367	      1.76399806	     -7.34812726	     -1.13713786	     -0.04771541	     -0.32569439	     -2.61544415	     -3.20005118	      1.98135591	    -32.45179506	     -0.47109975	     13.11868308	     25.98911251	     38.19177806	     -1.74568193	     -0.25384269	    -23.29545204	     -5.70657245	      8.21729553	     -7.06371326	      8.28762090	     -2.84930804	      5.72543442
      4.62000000	     -9.02809078	      2.05788854	     -7.24142193	     -1.13003499	     -0.04808959	     -0.32650382	     -2.25016547	     -3.73654932	      1.37821523	    -33.43447536	     -2.31350545	     13.16704527	     27.82251119	     38.37435409	     -1.26388488	     -0.07880029	    -24.21177989	     -5.86071851	      7.68169027	     -7.53951750	      8.42623437	     -3.31409258	      5.63042063
      4.62500000	     -9.23469324	      2.37102347	     -7.16108535	     -1.12306543	     -0.04859418	     -0.32735572	     -1.65701087	     -4.28930888	      0.82219709	    -34.67041567	     -3.85112237	     13.48900824	     28.47435066	     38.65685203	     -0.76175525	      0.17616055	    -25.08843873	     -6.02516693	      6.97616275	     -7.91624161	      8.66797617	     -3.76167778	      5.57218793
      4.63000000	     -9.41072560	      2.69162188	     -7.05315510	     -1.11600801	     -0.04901308	     -0.32826356	     -1.09356251	     -4.85652955	      0.27536047	    -35.88423729	     -5.57675321	     13.64497916	     29.26437485	     38.86138017	     -0.20727758	      0.48713012	    -25.91347936	     -6.04096094	      6.22746919	     -8.34993464	      8.89617364	     -4.21778564	      5.48214624
      4.63500000	     -9.54940500	      3.01530366	     -6.93700595	     -1.10898809	     -0.04935703	     -0.32915620	     -0.53865594	     -5.42374940	     -0.23295136	    -37.12131034	     -7.42132062	     13.62460505	     30.10619353	     38.98667563	      0.36559185	      0.80828651	    -26.68664264	     -5.90062507	      5.55942288	     -8.82505141	      9.07553705	     -4.68276452	      5.40487327
      4.64000000	     -9.67110018	      3.34499531	     -6.82525985	     -1.10198745	     -0.04965197	     -0.33001439	      0.03437663	     -5.98450811	     -0.67709990	    -38.40932257	     -9.28332878	     13.47509622	     30.68851656	     39.05079076	      0.94536971	      1.10662343	    -27.39679305	     -5.64863155	      4.93909787	     -9.23897051	      9.24110994	     -5.15416397	      5.33792484
      4.64500000	     -9.71870459	      3.70612053	     -6.72779126	     -1.09499508	     -0.04986826	     -0.33073481	      0.57144339	     -6.56109228	     -1.06619013	    -39.78728366	    -11.00204815	     13.18877522	     30.60417182	     38.99509907	      1.51398315	      1.22289587	    -28.03032465	     -5.29613970	      4.55491377	     -9.26140497	      9.33361157	     -5.67655516	      5.28189152
      4.65000000	     -9.91462081	      4.05026466	     -6.58114032	     -1.08808240	     -0.05012870	     -0.33170667	      1.29482583	     -7.09973866	     -1.36944460	    -41.14843573	    -12.87051856	     12.83534757	     30.90051209	     39.03647823	      2.15677767	      1.63365996	    -28.56068513	     -4.98725622	      3.79345333	     -9.66598142	      9.57833751	     -6.13875128	      5.17621124
      4.65500000	     -9.96458005	      4.44282058	     -6.44951599	     -1.08129368	     -0.05030704	     -0.33250919	      1.92730092	     -7.70364798	     -1.72740143	    -42.61655414	    -14.51206164	     12.32006322	     30.74714543	     38.91491316	      2.77818167	      1.74383313	    -29.05656372	     -4.51284567	      3.47800726	     -9.66887293	      9.64913648	     -6.68360255	      5.11967254
      4.66000000	    -10.19433479	      4.79259184	     -6.25833619	     -1.07458348	     -0.05056287	     -0.33354555	      2.76864282	     -8.22325500	     -1.99129342	    -44.03785283	    -16.33232843	     11.60864539	     31.08432651	     38.94631930	      3.42492789	      2.06553685	    -29.51484255	     -3.88404096	      3.04024853	    -10.37440361	      9.90181166	     -7.14013550	      4.97655765
      4.66500000	    -10.24025055	      5.22057869	     -6.12754568	     -1.06789663	     -0.05057364	     -0.33434638	      3.46914135	     -8.82127447	     -2.20218153	    -45.53125014	    -17.85874139	     10.81568465	     30.64967924	     38.71762344	      4.06960226	      2.11801224	    -29.81337151	     -3.37921517	      2.73922282	    -10.31643990	      9.97339655	     -7.71038388	      4.90808001
      4.67000000	    -10.35815750	      5.63213351	     -5.96750998	     -1.06133685	     -0.05058733	     -0.33522306	      4.28839813	     -9.37401662	     -2.36788850	    -47.04213665	    -19.30660432	      9.89427094	     30.14110403	     38.53403821	      4.71143611	      2.22189694	    -30.04239778	     -2.88569079	      2.42845178	    -10.30789653	     10.10569628	     -8.24787459	      4.78964991
      4.67500000	    -10.50816119	      6.03164468	     -5.79232514	     -1.05487509	     -0.05056479	     -0.33609826	      5.17909516	     -9.89011851	     -2.50140209	    -48.55893787	    -20.62416931	      8.87807760	     29.53656062	     38.35718567	      5.33277164	      2.30681034	    -30.21419448	     -2.37625967	      2.18534620	    -10.31795135	     10.26207044	     -8.76716485	      4.64457427
